<?xml version="1.0" standalone="no"?>
<!DOCTYPE svg PUBLIC "-//W3C//DTD SVG 20010904//EN"
 "http://www.w3.org/TR/2001/REC-SVG-20010904/DTD/svg10.dtd">
<svg version="1.0" xmlns="http://www.w3.org/2000/svg"
 width="1024.000000pt" height="1024.000000pt" viewBox="0 0 1024.000000 1024.000000"
 preserveAspectRatio="xMidYMid meet">

<g transform="translate(0.000000,1024.000000) scale(0.100000,-0.100000)"
fill="#000000" stroke="none">
<path d="M5880 9155 c-13 -14 -35 -25 -49 -25 -14 0 -51 -12 -81 -26 -81 -38
-244 -108 -383 -163 -67 -27 -293 -120 -502 -206 -209 -87 -455 -187 -547
-224 l-166 -66 3 -191 4 -191 -72 -59 c-40 -32 -98 -83 -129 -113 l-58 -54 -2
344 c-1 189 0 401 2 472 1 70 0 127 -4 127 -4 0 -35 -12 -69 -26 -34 -15 -98
-39 -142 -54 -44 -15 -102 -38 -130 -50 -27 -12 -79 -32 -115 -45 l-65 -22 4
-419 c4 -414 3 -420 -17 -429 -11 -6 -150 -136 -308 -291 -159 -154 -343 -331
-409 -392 -66 -61 -181 -170 -255 -241 l-135 -129 130 39 c332 100 463 138
498 145 l37 6 1 -178 c1 -99 0 -321 -1 -495 l-2 -316 99 -31 c109 -34 370 -88
478 -97 39 -4 84 -8 100 -10 169 -19 423 -27 655 -20 146 4 290 10 320 14 l54
6 -3 701 c-2 594 -1 705 12 735 17 41 187 223 376 403 75 72 312 305 527 518
l390 389 124 -128 c68 -70 221 -225 339 -343 119 -119 334 -336 477 -483 l261
-268 159 3 c88 2 173 -1 191 -5 26 -7 -6 29 -177 197 -114 113 -468 465 -785
782 l-577 576 -116 -113 c-65 -63 -169 -164 -232 -224 -63 -61 -338 -326 -610
-590 -681 -662 -663 -645 -708 -645 -54 0 -359 -92 -437 -132 -44 -22 -96 -42
-115 -44 -84 -9 -131 -21 -220 -56 -19 -8 -42 -14 -50 -13 -8 1 -26 3 -40 4
-23 2 -23 3 9 17 19 8 98 30 175 48 166 40 231 67 306 126 30 24 213 199 405
390 818 807 1572 1550 1595 1569 14 11 20 20 14 21 -6 0 -21 -11 -34 -25z"/>
<path d="M5587 7633 c-1 -1 -1 -69 1 -152 l3 -151 130 0 129 0 0 145 c0 142 0
145 -22 150 -21 4 -238 12 -241 8z"/>
<path d="M5930 7469 c0 -134 2 -150 16 -145 9 3 67 6 130 6 l114 0 0 145 0
145 -130 0 -130 0 0 -151z"/>
<path d="M5720 7212 l-126 -3 1 -144 0 -144 128 -3 c71 -2 130 -1 130 2 1 3 0
70 -3 150 l-5 145 -125 -3z"/>
<path d="M7795 7210 c11 -5 29 -8 40 -8 16 0 15 2 -5 8 -34 11 -60 11 -35 0z"/>
<path d="M5934 7060 l1 -150 130 0 130 0 -3 150 -3 150 -128 0 -129 0 2 -150z"/>
<path d="M7206 7092 c-2 -1 -23 -5 -47 -8 -118 -15 -294 -71 -409 -130 -151
-78 -335 -244 -438 -396 -128 -190 -200 -393 -224 -638 -10 -100 -9 -134 5
-237 22 -156 55 -267 105 -353 l40 -69 -97 -93 c-122 -118 -138 -139 -146
-199 -6 -43 -13 -55 -68 -105 -105 -96 -987 -964 -1688 -1660 l-666 -661 -17
-92 c-14 -73 -16 -131 -13 -284 l5 -192 23 3 c13 1 116 7 229 12 113 5 218 14
234 19 39 15 189 154 212 196 10 19 25 35 33 35 16 0 362 -344 468 -465 l61
-70 149 146 c81 80 186 179 233 219 47 40 89 79 93 86 4 7 1 29 -7 49 -18 41
-15 42 24 13 18 -13 33 -18 38 -12 85 97 297 315 366 377 50 44 93 85 94 89 2
5 -5 16 -16 26 -11 9 -54 55 -97 101 -103 112 -328 326 -376 358 -22 14 -39
29 -39 33 0 4 129 135 288 291 158 156 431 428 607 604 186 186 359 350 413
391 52 40 137 115 191 167 l97 96 59 -30 c89 -43 235 -71 400 -74 362 -9 663
109 917 358 250 244 381 644 334 1017 -22 174 -52 272 -129 426 -114 227 -300
406 -550 531 -131 65 -210 90 -365 113 -114 17 -313 25 -326 12z m284 -217
c134 -20 211 -44 331 -106 122 -63 247 -163 329 -266 115 -144 153 -220 205
-420 23 -89 25 -111 21 -238 -6 -170 -34 -291 -99 -428 -73 -153 -205 -314
-323 -394 -232 -158 -524 -218 -789 -163 -114 23 -233 58 -319 93 l-59 24 -76
-80 c-99 -104 -205 -195 -236 -203 -20 -5 -42 7 -115 61 -90 68 -99 78 -80 90
15 9 12 48 -5 71 -8 10 -15 24 -15 30 0 11 233 248 259 264 12 7 5 24 -38 87
-68 100 -126 221 -146 303 -22 87 -31 355 -16 445 24 138 101 323 176 425 44
60 188 200 245 240 73 50 203 114 281 139 124 41 307 51 469 26z m-1274 -2123
c34 -40 114 -167 114 -180 0 -10 -880 -883 -1165 -1157 -127 -121 -298 -287
-381 -370 -82 -82 -304 -302 -491 -488 l-341 -337 -54 0 c-32 0 -62 6 -76 16
-54 38 -67 123 -29 192 13 23 259 275 587 598 311 307 838 830 1172 1161 334
332 613 603 620 603 7 0 27 -17 44 -38z m-916 -1908 l171 -171 -81 -82 c-51
-52 -85 -79 -93 -74 -26 16 -235 194 -340 291 l-48 44 17 26 c10 15 52 64 93
108 l76 82 17 -27 c10 -14 94 -103 188 -197z m-471 -427 c86 -93 162 -179 170
-192 14 -22 12 -25 -20 -52 -19 -15 -60 -53 -93 -83 l-59 -55 -159 165 c-88
91 -171 180 -185 198 l-26 32 72 73 c39 40 78 83 87 95 20 29 7 40 213 -181z"/>
<path d="M7140 6679 c-154 -39 -272 -112 -406 -250 -120 -124 -174 -231 -215
-421 -53 -248 26 -512 216 -716 101 -110 211 -177 378 -234 83 -28 103 -31
212 -31 265 2 458 81 623 258 117 126 178 249 220 445 14 69 5 290 -17 371
-45 174 -157 325 -334 450 -184 129 -463 182 -677 128z m409 -215 c93 -30 159
-75 258 -174 79 -77 135 -188 160 -312 17 -83 17 -94 1 -204 -35 -241 -160
-409 -374 -503 -233 -104 -542 -34 -720 162 -184 202 -223 473 -103 716 33 66
60 102 123 166 91 91 144 122 266 160 117 35 264 31 389 -11z"/>
<path d="M7229 6197 c-120 -51 -191 -124 -229 -237 -44 -130 -8 -274 94 -376
78 -77 138 -99 259 -92 102 6 159 30 231 98 59 56 90 117 107 207 21 114 -27
250 -118 333 -61 56 -119 78 -218 86 -59 4 -79 1 -126 -19z m182 -212 c48 -25
89 -90 89 -142 0 -117 -121 -196 -226 -147 -41 20 -94 97 -94 138 0 61 48 130
110 158 27 12 90 8 121 -7z"/>
<path d="M1982 6050 c0 -8 4 -26 8 -40 6 -20 8 -21 8 -5 0 11 -3 29 -8 40 -5
12 -8 14 -8 5z"/>
<path d="M5890 5786 c0 -2 7 -6 15 -10 8 -3 15 -1 15 4 0 6 -7 10 -15 10 -8 0
-15 -2 -15 -4z"/>
<path d="M2920 5488 c0 -84 4 -158 8 -164 9 -13 101 -38 217 -59 50 -9 122
-22 160 -30 86 -18 122 -23 255 -32 170 -12 794 -8 895 6 50 6 105 14 124 16
18 2 34 5 36 7 2 2 4 66 6 143 4 135 3 140 -16 138 -218 -20 -760 -33 -784
-19 -4 3 -56 6 -115 7 -59 2 -109 6 -111 9 -2 4 -17 7 -33 8 -16 0 -62 7 -103
16 -41 8 -101 17 -134 21 -88 9 -325 55 -364 71 -18 8 -35 14 -37 14 -2 0 -4
-69 -4 -152z"/>
<path d="M2200 5454 c87 -101 229 -199 454 -313 129 -66 266 -121 308 -125 3
-1 10 -4 14 -8 4 -5 20 -8 35 -8 15 0 30 -4 33 -9 3 -4 20 -12 38 -16 18 -4
40 -9 48 -12 8 -2 29 -6 45 -8 77 -12 106 -40 121 -119 4 -22 13 -51 20 -65 8
-14 14 -31 14 -36 0 -15 167 -104 215 -115 69 -17 395 -32 515 -26 124 7 331
35 473 63 l88 17 -2 149 c0 97 3 153 10 160 6 6 11 17 11 24 0 16 -38 16 -205
3 -359 -28 -426 -30 -637 -20 -238 10 -326 20 -524 56 -73 13 -169 26 -215 29
-164 12 -281 47 -496 150 -105 51 -165 86 -195 115 -24 23 -77 65 -118 92 -61
41 -70 46 -50 22z"/>
<path d="M5925 5365 l-30 -14 32 -1 c17 0 39 -7 48 -16 19 -19 24 -16 27 17 2
19 -2 24 -22 26 -14 1 -38 -4 -55 -12z"/>
<path d="M5618 5263 c-10 -2 -18 -9 -18 -14 0 -6 10 -5 23 2 37 20 36 23 -5
12z"/>
<path d="M5550 5240 c-18 -12 -2 -12 25 0 13 6 15 9 5 9 -8 0 -22 -4 -30 -9z"/>
<path d="M5468 5213 c7 -3 16 -2 19 1 4 3 -2 6 -13 5 -11 0 -14 -3 -6 -6z"/>
<path d="M5840 5080 c-6 -11 -8 -20 -6 -20 3 0 10 9 16 20 6 11 8 20 6 20 -3
0 -10 -9 -16 -20z"/>
<path d="M2060 5083 c0 -18 102 -288 130 -343 96 -192 338 -365 609 -435 34
-8 107 -31 164 -51 204 -70 510 -101 872 -90 231 7 243 8 450 32 282 32 549
94 780 179 127 48 149 63 335 241 52 51 113 104 134 118 21 14 35 26 30 26 -5
0 -70 -21 -144 -45 -200 -68 -251 -81 -473 -126 -111 -22 -258 -53 -327 -69
-109 -25 -205 -39 -560 -80 -95 -11 -363 -11 -455 0 -96 11 -397 59 -415 66
-8 3 -82 19 -165 35 -232 46 -489 139 -670 242 -105 60 -231 182 -270 262 -13
28 -24 44 -25 38z"/>
<path d="M6961 4255 c-22 -24 -41 -50 -41 -58 0 -7 22 -35 49 -61 l50 -49 52
50 52 49 -18 38 c-20 41 -59 76 -85 76 -10 0 -36 -20 -59 -45z"/>
<path d="M6680 3929 c-44 -46 -46 -64 -10 -109 38 -47 63 -57 95 -36 62 41 68
95 15 147 -37 37 -65 37 -100 -2z"/>
<path d="M4590 3856 c-19 -7 -66 -19 -105 -26 -38 -7 -128 -27 -200 -46 -235
-59 -626 -100 -855 -89 -220 11 -371 32 -557 79 -209 53 -256 51 -237 -12 12
-42 134 -138 199 -158 115 -35 394 -86 503 -91 230 -12 685 31 919 87 106 25
210 77 254 128 55 63 120 142 117 141 -2 0 -19 -6 -38 -13z"/>
<path d="M6254 3657 c-43 -46 -98 -106 -121 -134 -42 -50 -42 -52 -20 -59 12
-4 65 -52 118 -107 l96 -99 97 93 c54 52 109 100 122 107 l25 13 -60 67 c-32
37 -78 85 -101 107 -23 22 -50 52 -60 67 l-17 28 -79 -83z"/>
</g>
</svg>
